<svg width="841" height="411" viewBox="0 0 841 411" fill="none" xmlns="http://www.w3.org/2000/svg">
<path d="M88.8187 251.044C75.4508 251.044 62.9184 249.059 51.2215 245.091C39.7335 241.122 29.7076 235.587 21.1438 228.485C12.58 221.175 6.20935 212.715 2.03189 203.107C0.152033 199.556 0.0475963 196.214 1.71858 193.081C3.59844 189.948 6.6271 187.859 10.8046 186.815C13.9377 185.98 17.0708 186.397 20.2038 188.068C23.3369 189.53 25.6345 191.932 27.0967 195.274C30.2298 201.123 34.7205 206.449 40.569 211.253C46.6263 215.848 53.728 219.504 61.874 222.219C70.2289 224.725 79.2105 225.979 88.8187 225.979C99.6801 225.979 109.393 224.203 117.956 220.652C126.52 217.102 133.309 211.984 138.322 205.3C143.335 198.616 145.841 190.47 145.841 180.862C145.841 168.747 141.246 158.199 132.055 149.218C122.865 140.027 108.244 134.283 88.192 131.986C63.3361 129.062 43.8065 121.438 29.6031 109.114C15.6086 96.7907 8.61139 81.543 8.61139 63.371C8.61139 50.4209 12.1622 39.2462 19.2639 29.8469C26.3656 20.2388 36.0782 12.9282 48.4017 7.91525C60.7252 2.69343 74.7197 0.0825195 90.3852 0.0825195C102.291 0.0825195 112.943 1.96237 122.343 5.72207C131.742 9.27292 139.888 14.077 146.781 20.1343C153.883 26.1916 159.731 32.98 164.326 40.4994C166.833 44.2592 167.668 47.9144 166.833 51.4653C166.206 54.8073 164.326 57.4182 161.193 59.298C157.851 60.969 154.3 61.2823 150.541 60.2379C146.99 58.9847 144.274 56.6871 142.395 53.3451C139.261 48.3322 135.293 43.737 130.489 39.5595C125.894 35.1732 120.254 31.7268 113.57 29.2203C106.886 26.7138 98.949 25.3562 89.7586 25.1473C73.6754 25.1473 60.5163 28.4892 50.2816 35.1732C40.0468 41.8571 34.9294 51.7786 34.9294 64.9376C34.9294 71.6215 36.7048 77.9922 40.2557 84.0495C44.0154 89.8979 50.1771 94.9109 58.7409 99.0883C67.5136 103.266 79.4194 106.399 94.4582 108.488C120.358 111.83 139.784 119.662 152.734 131.986C165.684 144.309 172.159 160.497 172.159 180.549C172.159 192.037 169.966 202.167 165.58 210.94C161.402 219.713 155.449 227.128 147.721 233.185C139.993 239.033 131.011 243.524 120.776 246.657C110.75 249.581 100.098 251.044 88.8187 251.044Z" fill="#292929"/>
<path d="M449.414 247.91C445.445 247.91 442.207 246.762 439.701 244.464C437.194 241.958 435.941 238.72 435.941 234.751V144.832C435.941 130.419 432.286 119.245 424.975 111.307C417.665 103.37 408.161 99.4016 396.464 99.4016C384.141 99.4016 374.01 103.579 366.073 111.934C358.345 120.289 354.481 131.255 354.481 144.832H331.609C331.818 130.837 334.847 118.618 340.695 108.174C346.544 97.5218 354.585 89.2713 364.82 83.4229C375.264 77.5744 387.065 74.6502 400.224 74.6502C412.339 74.6502 423.096 77.47 432.495 83.1096C441.894 88.7491 449.205 96.8952 454.426 107.548C459.857 117.991 462.573 130.419 462.573 144.832V234.751C462.573 238.72 461.319 241.958 458.813 244.464C456.306 246.762 453.173 247.91 449.414 247.91ZM233.23 247.91C229.052 247.91 225.71 246.762 223.204 244.464C220.906 241.958 219.758 238.72 219.758 234.751V90.0024C219.758 86.0338 220.906 82.7962 223.204 80.2898C225.71 77.7833 229.052 76.53 233.23 76.53C237.198 76.53 240.332 77.7833 242.629 80.2898C245.136 82.7962 246.389 86.0338 246.389 90.0024V234.751C246.389 238.72 245.136 241.958 242.629 244.464C240.332 246.762 237.198 247.91 233.23 247.91ZM341.322 247.91C337.562 247.91 334.429 246.762 331.922 244.464C329.416 241.958 328.163 238.72 328.163 234.751V144.832C328.163 130.419 324.403 119.245 316.884 111.307C309.573 103.37 300.174 99.4016 288.686 99.4016C276.362 99.4016 266.232 103.475 258.295 111.621C250.357 119.767 246.389 130.419 246.389 143.578H228.217C228.635 130.002 231.559 118.096 236.99 107.861C242.42 97.4174 249.94 89.2713 259.548 83.4229C269.156 77.5744 280.122 74.6502 292.445 74.6502C304.56 74.6502 315.317 77.47 324.716 83.1096C334.116 88.7491 341.426 96.8952 346.648 107.548C351.87 117.991 354.481 130.419 354.481 144.832V234.751C354.481 238.72 353.227 241.958 350.721 244.464C348.423 246.762 345.29 247.91 341.322 247.91Z" fill="#292929"/>
<path d="M523.773 244.464C526.28 246.762 529.517 247.91 533.486 247.91C537.454 247.91 540.587 246.762 542.885 244.464C545.392 241.958 546.645 238.616 546.645 234.438V90.0024C546.645 85.8249 545.392 82.5874 542.885 80.2898C540.587 77.7833 537.454 76.53 533.486 76.53C529.517 76.53 526.28 77.7833 523.773 80.2898C521.267 82.5874 520.013 85.8249 520.013 90.0024V234.438C520.013 238.616 521.267 241.958 523.773 244.464Z" fill="#292929"/>
<path d="M645.641 247.91C636.868 247.91 629.14 245.613 622.456 241.018C615.772 236.214 610.55 229.634 606.79 221.279C603.031 212.924 601.151 203.316 601.151 192.455V16.3746C601.151 12.406 602.3 9.27293 604.597 6.97532C607.104 4.46885 610.341 3.21561 614.31 3.21561C618.07 3.21561 621.098 4.46885 623.396 6.97532C625.902 9.27293 627.156 12.406 627.156 16.3746V192.455C627.156 201.018 628.827 208.12 632.168 213.76C635.719 219.19 640.21 221.906 645.641 221.906H653.474C656.816 221.906 659.531 223.159 661.62 225.665C663.708 227.963 664.753 230.992 664.753 234.751C664.753 238.72 663.186 241.958 660.053 244.464C657.129 246.762 653.265 247.91 648.461 247.91H645.641Z" fill="#292929"/>
<path d="M766.833 249.477C749.705 249.477 734.562 245.822 721.403 238.511C708.244 230.992 697.905 220.652 690.385 207.493C682.866 194.334 679.106 179.296 679.106 162.377C679.106 145.249 682.657 130.21 689.759 117.26C696.86 104.101 706.573 93.7621 718.897 86.2426C731.429 78.7232 745.841 74.9635 762.133 74.9635C778.008 74.9635 791.793 78.6188 803.49 85.9293C815.396 93.031 824.482 102.952 830.748 115.694C837.223 128.435 840.461 142.952 840.461 159.244C840.461 162.795 839.312 165.719 837.014 168.016C834.717 170.105 831.792 171.15 828.242 171.15H697.278V149.531H829.808L816.336 158.93C816.545 147.442 814.456 137.103 810.07 127.913C805.683 118.722 799.417 111.516 791.271 106.294C783.125 101.073 773.412 98.4617 762.133 98.4617C750.227 98.4617 739.784 101.177 730.802 106.608C722.03 112.038 715.241 119.662 710.437 129.479C705.842 139.088 703.544 150.053 703.544 162.377C703.544 174.7 706.26 185.666 711.69 195.274C717.121 204.883 724.536 212.402 733.935 217.833C743.544 223.263 754.509 225.979 766.833 225.979C773.935 225.979 781.141 224.725 788.451 222.219C795.971 219.713 801.924 216.579 806.31 212.82C808.816 210.94 811.636 210 814.769 210C818.111 209.791 820.827 210.627 822.915 212.506C826.048 215.222 827.615 218.146 827.615 221.279C827.824 224.412 826.466 227.128 823.542 229.425C816.649 235.274 807.876 240.078 797.224 243.837C786.571 247.597 776.441 249.477 766.833 249.477Z" fill="#292929"/>
<path d="M533.172 45.5124C528.16 45.5124 523.878 43.737 520.327 40.1861C516.776 36.4264 515 32.0401 515 27.0271C515 21.8053 516.776 17.5234 520.327 14.1814C524.086 10.8395 528.368 9.16849 533.172 9.16849C537.977 9.16849 542.154 10.8395 545.705 14.1814C549.465 17.5234 551.344 21.8053 551.344 27.0271C551.344 32.0401 549.569 36.4264 546.018 40.1861C542.467 43.737 538.185 45.5124 533.172 45.5124Z" fill="#31881C"/>
<path d="M218.605 276.304C246.54 305.864 278.361 327.682 312.804 342.176C347.183 356.71 383.846 363.736 420.649 363.84C457.455 363.736 494.12 356.71 528.499 342.176C562.941 327.682 594.762 305.864 622.697 276.304L622.717 276.282C623.856 275.079 625.752 275.025 626.956 276.162C627.842 276.999 628.103 278.25 627.727 279.331C613.822 319.07 583.279 353.2 546.141 375.967C508.869 398.91 464.63 410.765 420.649 410.797C376.673 410.765 332.432 398.91 295.16 375.97C258.023 353.2 227.481 319.07 213.575 279.331C213.028 277.768 213.852 276.058 215.415 275.511C216.565 275.109 217.795 275.449 218.582 276.279L218.605 276.304Z" fill="#31881C"/>
<path d="M181.45 294.272C180.658 287.054 182.509 280.318 186.024 274.143C189.544 268.032 194.938 262.633 201.474 259.288C207.957 255.976 215.218 254.128 222.144 254.53C225.623 254.438 228.954 255.482 232.213 256.096C235.405 257.177 238.476 258.477 241.34 260.182C242.826 261.068 243.313 262.99 242.427 264.476C242.041 265.126 241.456 265.584 240.797 265.821L240.374 265.972C237.299 267.074 234.443 267.53 231.686 268.204C228.988 269.085 226.296 269.453 223.873 270.4C218.855 271.733 214.581 273.791 210.47 275.876C206.384 278.052 202.671 280.82 198.853 284.097C195.031 287.341 191.309 291.425 187.154 295.655L186.719 296.099C185.524 297.315 183.571 297.332 182.355 296.139C181.827 295.62 181.525 294.955 181.45 294.272Z" fill="#31881C"/>
<path d="M653.843 295.655C649.688 291.425 645.968 287.341 642.145 284.097C638.328 280.82 634.615 278.052 630.528 275.876C626.418 273.791 622.142 271.733 617.127 270.4C614.703 269.453 612.011 269.085 609.312 268.204C606.556 267.53 603.7 267.074 600.625 265.972L600.207 265.822C598.578 265.239 597.729 263.445 598.314 261.817C598.569 261.105 599.057 260.541 599.659 260.182C602.521 258.477 605.592 257.177 608.784 256.096C612.045 255.482 615.374 254.438 618.853 254.53C625.779 254.128 633.04 255.976 639.524 259.288C646.06 262.633 651.454 268.032 654.976 274.143C658.489 280.318 660.339 287.054 659.55 294.272C659.364 295.967 657.838 297.189 656.146 297.005C655.409 296.922 654.764 296.59 654.282 296.102L653.843 295.655Z" fill="#31881C"/>
</svg>
