<svg width="841" height="411" viewBox="0 0 841 411" fill="none" xmlns="http://www.w3.org/2000/svg">
<path d="M88.8187 251.041C75.4508 251.041 62.9184 249.057 51.2215 245.088C39.7335 241.12 29.7076 235.585 21.1438 228.483C12.58 221.172 6.20935 212.713 2.03189 203.105C0.152033 199.554 0.0475963 196.212 1.71858 193.079C3.59844 189.946 6.6271 187.857 10.8046 186.813C13.9377 185.977 17.0708 186.395 20.2038 188.066C23.3369 189.528 25.6345 191.93 27.0967 195.272C30.2298 201.121 34.7205 206.447 40.569 211.251C46.6263 215.846 53.728 219.501 61.874 222.217C70.2289 224.723 79.2105 225.976 88.8187 225.976C99.6801 225.976 109.393 224.201 117.956 220.65C126.52 217.099 133.309 211.982 138.322 205.298C143.335 198.614 145.841 190.468 145.841 180.86C145.841 168.745 141.246 158.197 132.055 149.216C122.865 140.025 108.244 134.281 88.192 131.984C63.3361 129.059 43.8065 121.436 29.6031 109.112C15.6086 96.7885 8.61139 81.5407 8.61139 63.3688C8.61139 50.4187 12.1622 39.244 19.2639 29.8447C26.3656 20.2365 36.0782 12.9259 48.4017 7.91299C60.7252 2.69117 74.7197 0.0802612 90.3852 0.0802612C102.291 0.0802612 112.943 1.96011 122.343 5.71982C131.742 9.27066 139.888 14.0747 146.781 20.1321C153.883 26.1894 159.731 32.9778 164.326 40.4972C166.833 44.2569 167.668 47.9122 166.833 51.463C166.206 54.805 164.326 57.4159 161.193 59.2958C157.851 60.9667 154.3 61.2801 150.541 60.2357C146.99 58.9825 144.274 56.6849 142.395 53.3429C139.261 48.3299 135.293 43.7347 130.489 39.5573C125.894 35.1709 120.254 31.7245 113.57 29.218C106.886 26.7116 98.949 25.3539 89.7586 25.145C73.6754 25.145 60.5163 28.487 50.2816 35.1709C40.0468 41.8549 34.9294 51.7763 34.9294 64.9353C34.9294 71.6193 36.7048 77.9899 40.2557 84.0472C44.0154 89.8957 50.1771 94.9086 58.7409 99.0861C67.5136 103.264 79.4194 106.397 94.4582 108.485C120.358 111.827 139.784 119.66 152.734 131.984C165.684 144.307 172.159 160.495 172.159 180.547C172.159 192.035 169.966 202.165 165.58 210.938C161.402 219.71 155.449 227.125 147.721 233.183C139.993 239.031 131.011 243.522 120.776 246.655C110.75 249.579 100.098 251.041 88.8187 251.041Z" fill="white"/>
<path d="M449.414 247.908C445.445 247.908 442.207 246.759 439.701 244.462C437.194 241.955 435.941 238.718 435.941 234.749V144.829C435.941 130.417 432.286 119.242 424.975 111.305C417.665 103.368 408.161 99.3994 396.464 99.3994C384.141 99.3994 374.01 103.577 366.073 111.932C358.345 120.287 354.481 131.253 354.481 144.829H331.609C331.818 130.835 334.847 118.616 340.695 108.172C346.544 97.5195 354.585 89.269 364.82 83.4206C375.264 77.5722 387.065 74.6479 400.224 74.6479C412.339 74.6479 423.096 77.4677 432.495 83.1073C441.894 88.7469 449.205 96.8929 454.426 107.545C459.857 117.989 462.573 130.417 462.573 144.829V234.749C462.573 238.718 461.319 241.955 458.813 244.462C456.306 246.759 453.173 247.908 449.414 247.908ZM233.23 247.908C229.052 247.908 225.71 246.759 223.204 244.462C220.906 241.955 219.758 238.718 219.758 234.749V90.0001C219.758 86.0315 220.906 82.794 223.204 80.2875C225.71 77.781 229.052 76.5278 233.23 76.5278C237.198 76.5278 240.332 77.781 242.629 80.2875C245.136 82.794 246.389 86.0315 246.389 90.0001V234.749C246.389 238.718 245.136 241.955 242.629 244.462C240.332 246.759 237.198 247.908 233.23 247.908ZM341.322 247.908C337.562 247.908 334.429 246.759 331.922 244.462C329.416 241.955 328.163 238.718 328.163 234.749V144.829C328.163 130.417 324.403 119.242 316.884 111.305C309.573 103.368 300.174 99.3994 288.686 99.3994C276.362 99.3994 266.232 103.472 258.295 111.618C250.357 119.765 246.389 130.417 246.389 143.576H228.217C228.635 129.999 231.559 118.094 236.99 107.859C242.42 97.4151 249.94 89.269 259.548 83.4206C269.156 77.5722 280.122 74.6479 292.445 74.6479C304.56 74.6479 315.317 77.4677 324.716 83.1073C334.116 88.7469 341.426 96.8929 346.648 107.545C351.87 117.989 354.481 130.417 354.481 144.829V234.749C354.481 238.718 353.227 241.955 350.721 244.462C348.423 246.759 345.29 247.908 341.322 247.908Z" fill="white"/>
<path d="M523.773 244.462C526.28 246.759 529.517 247.908 533.486 247.908C537.454 247.908 540.587 246.759 542.885 244.462C545.392 241.955 546.645 238.613 546.645 234.436V90.0001C546.645 85.8226 545.392 82.5851 542.885 80.2875C540.587 77.781 537.454 76.5278 533.486 76.5278C529.517 76.5278 526.28 77.781 523.773 80.2875C521.267 82.5851 520.013 85.8226 520.013 90.0001V234.436C520.013 238.613 521.267 241.955 523.773 244.462Z" fill="white"/>
<path d="M645.641 247.908C636.868 247.908 629.14 245.611 622.456 241.015C615.772 236.211 610.55 229.632 606.79 221.277C603.031 212.922 601.151 203.314 601.151 192.452V16.3724C601.151 12.4038 602.3 9.27067 604.597 6.97306C607.104 4.46659 610.341 3.21335 614.31 3.21335C618.07 3.21335 621.098 4.46659 623.396 6.97306C625.902 9.27067 627.156 12.4038 627.156 16.3724V192.452C627.156 201.016 628.827 208.118 632.168 213.757C635.719 219.188 640.21 221.903 645.641 221.903H653.474C656.816 221.903 659.531 223.157 661.62 225.663C663.708 227.961 664.753 230.989 664.753 234.749C664.753 238.718 663.186 241.955 660.053 244.462C657.129 246.759 653.265 247.908 648.461 247.908H645.641Z" fill="white"/>
<path d="M766.833 249.475C749.705 249.475 734.562 245.819 721.403 238.509C708.244 230.989 697.905 220.65 690.385 207.491C682.866 194.332 679.106 179.293 679.106 162.375C679.106 145.247 682.657 130.208 689.759 117.258C696.86 104.099 706.573 93.7598 718.897 86.2404C731.429 78.721 745.841 74.9612 762.133 74.9612C778.008 74.9612 791.793 78.6165 803.49 85.9271C815.396 93.0288 824.482 102.95 830.748 115.691C837.223 128.433 840.461 142.949 840.461 159.242C840.461 162.792 839.312 165.717 837.014 168.014C834.717 170.103 831.792 171.147 828.242 171.147H697.278V149.529H829.808L816.336 158.928C816.545 147.44 814.456 137.101 810.07 127.911C805.683 118.72 799.417 111.514 791.271 106.292C783.125 101.07 773.412 98.4595 762.133 98.4595C750.227 98.4595 739.784 101.175 730.802 106.606C722.03 112.036 715.241 119.66 710.437 129.477C705.842 139.085 703.544 150.051 703.544 162.375C703.544 174.698 706.26 185.664 711.69 195.272C717.121 204.88 724.536 212.4 733.935 217.83C743.544 223.261 754.509 225.976 766.833 225.976C773.935 225.976 781.141 224.723 788.451 222.217C795.971 219.71 801.924 216.577 806.31 212.817C808.816 210.938 811.636 209.998 814.769 209.998C818.111 209.789 820.827 210.624 822.915 212.504C826.048 215.22 827.615 218.144 827.615 221.277C827.824 224.41 826.466 227.125 823.542 229.423C816.649 235.271 807.876 240.075 797.224 243.835C786.571 247.595 776.441 249.475 766.833 249.475Z" fill="white"/>
<path d="M533.172 45.5101C528.16 45.5101 523.878 43.7347 520.327 40.1839C516.776 36.4242 515 32.0378 515 27.0249C515 21.8031 516.776 17.5212 520.327 14.1792C524.086 10.8372 528.368 9.16623 533.172 9.16623C537.977 9.16623 542.154 10.8372 545.705 14.1792C549.465 17.5212 551.344 21.8031 551.344 27.0249C551.344 32.0378 549.569 36.4242 546.018 40.1839C542.467 43.7347 538.185 45.5101 533.172 45.5101Z" fill="#9FE88D"/>
<path d="M218.604 276.302C246.539 305.862 278.36 327.68 312.804 342.174C347.182 356.708 383.845 363.734 420.649 363.837C457.454 363.734 494.119 356.708 528.498 342.174C562.941 327.68 594.762 305.862 622.697 276.302L622.717 276.28C623.855 275.076 625.751 275.023 626.956 276.16C627.842 276.997 628.103 278.248 627.727 279.329C613.821 319.068 583.279 353.198 546.141 375.965C508.868 398.908 464.629 410.763 420.649 410.795C376.672 410.763 332.432 398.908 295.159 375.968C258.022 353.198 227.481 319.068 213.575 279.329C213.028 277.766 213.852 276.056 215.414 275.509C216.565 275.107 217.794 275.447 218.581 276.277L218.604 276.302Z" fill="#9FE88D"/>
<path d="M181.45 294.27C180.658 287.052 182.509 280.316 186.024 274.141C189.544 268.029 194.938 262.631 201.474 259.286C207.957 255.974 215.218 254.126 222.144 254.528C225.623 254.435 228.954 255.48 232.213 256.094C235.405 257.175 238.476 258.474 241.34 260.18C242.826 261.066 243.313 262.988 242.427 264.474C242.041 265.123 241.456 265.582 240.797 265.819L240.374 265.97C237.299 267.072 234.443 267.528 231.686 268.202C228.988 269.083 226.296 269.451 223.873 270.398C218.855 271.731 214.581 273.789 210.47 275.874C206.384 278.05 202.671 280.818 198.853 284.095C195.031 287.339 191.309 291.423 187.154 295.653L186.719 296.097C185.524 297.313 183.571 297.33 182.355 296.137C181.827 295.618 181.525 294.953 181.45 294.27Z" fill="#9FE88D"/>
<path d="M653.844 295.653C649.688 291.423 645.969 287.339 642.146 284.095C638.329 280.818 634.615 278.05 630.528 275.874C626.419 273.789 622.143 271.731 617.127 270.398C614.704 269.451 612.011 269.083 609.312 268.202C606.556 267.528 603.7 267.072 600.626 265.97L600.207 265.82C598.578 265.236 597.729 263.443 598.314 261.815C598.57 261.103 599.057 260.539 599.659 260.18C602.521 258.474 605.593 257.175 608.785 256.094C612.045 255.48 615.375 254.435 618.854 254.528C625.779 254.126 633.041 255.974 639.525 259.286C646.06 262.631 651.455 268.029 654.976 274.141C658.489 280.316 660.339 287.052 659.551 294.27C659.364 295.965 657.838 297.187 656.146 297.003C655.409 296.92 654.764 296.588 654.282 296.1L653.844 295.653Z" fill="#9FE88D"/>
</svg>
